HIERARCHY
ROOT Hips
{
 OFFSET 0.000000 0.000000 0.000000
 CHANNELS 6 Xposition Yposition Zposition Yrotation Xrotation Zrotation
 JOINT Chest
 {
  OFFSET 0.000000 9.585900 0.002600
  CHANNELS 3 Yrotation Xrotation Zrotation
  JOINT Chest2
  {
   OFFSET 0.000000 9.601200 -0.005300
   CHANNELS 3 Yrotation Xrotation Zrotation
   JOINT Chest3
   {
    OFFSET 0.000000 9.561800 0.000000
    CHANNELS 3 Yrotation Xrotation Zrotation
    JOINT Chest4
    {
     OFFSET 0.000000 9.552100 0.000000
     CHANNELS 3 Yrotation Xrotation Zrotation
     JOINT Neck
     {
      OFFSET 0.000000 14.453000 0.000000
      CHANNELS 3 Yrotation Xrotation Zrotation
      JOINT Head
      {
       OFFSET 0.000000 8.936500 -0.011300
       CHANNELS 3 Yrotation Xrotation Zrotation
       End Site
       {
        OFFSET 0.000000 17.073600 -0.006000
       }
      }
     }
     JOINT RightCollar
     {
      OFFSET -2.921100 9.558500 0.000000
      CHANNELS 3 Yrotation Xrotation Zrotation
      JOINT RightShoulder
      {
       OFFSET -13.519700 0.000000 0.000000
       CHANNELS 3 Yrotation Xrotation Zrotation
       JOINT RightElbow
       {
        OFFSET 0.000000 -29.696600 0.000000
        CHANNELS 3 Yrotation Xrotation Zrotation
        JOINT RightWrist
        {
         OFFSET 0.000000 -24.004700 0.000000
         CHANNELS 3 Yrotation Xrotation Zrotation
         End Site
         {
          OFFSET 0.000000 -17.728500 0.000000
         }
        }
       }
      }
     }
     JOINT LeftCollar
     {
      OFFSET 2.921100 9.558500 0.000000
      CHANNELS 3 Yrotation Xrotation Zrotation
      JOINT LeftShoulder
      {
       OFFSET 13.519700 0.000000 0.000000
       CHANNELS 3 Yrotation Xrotation Zrotation
       JOINT LeftElbow
       {
        OFFSET 0.000000 -29.696600 0.000000
        CHANNELS 3 Yrotation Xrotation Zrotation
        JOINT LeftWrist
        {
         OFFSET 0.000000 -24.004700 0.000000
         CHANNELS 3 Yrotation Xrotation Zrotation
         End Site
         {
          OFFSET 0.000000 -17.728500 0.000000
         }
        }
       }
      }
     }
    }
   }
  }
 }
 JOINT RightHip
 {
  OFFSET -7.771700 -0.012900 -0.001300
  CHANNELS 3 Yrotation Xrotation Zrotation
  JOINT RightKnee
  {
   OFFSET 0.000000 -40.869800 0.001200
   CHANNELS 3 Yrotation Xrotation Zrotation
   JOINT RightAnkle
   {
    OFFSET 0.000000 -39.717900 0.002100
    CHANNELS 3 Yrotation Xrotation Zrotation
    JOINT RightToe
    {
     OFFSET 0.000000 -4.965400 11.033500
     CHANNELS 3 Yrotation Xrotation Zrotation
     End Site
     {
      OFFSET 0.000000 -1.423100 5.872300
     }
    }
   }
  }
 }
 JOINT LeftHip
 {
  OFFSET 7.771700 -0.012900 -0.001300
  CHANNELS 3 Yrotation Xrotation Zrotation
  JOINT LeftKnee
  {
   OFFSET 0.000000 -40.869800 0.001200
   CHANNELS 3 Yrotation Xrotation Zrotation
   JOINT LeftAnkle
   {
    OFFSET 0.000000 -39.717900 0.002100
    CHANNELS 3 Yrotation Xrotation Zrotation
    JOINT LeftToe
    {
     OFFSET 0.000000 -4.965400 11.033500
     CHANNELS 3 Yrotation Xrotation Zrotation
     End Site
     {
      OFFSET 0.000000 -1.423100 5.872300
     }
    }
   }
  }
 }
}
MOTION
Frames: 11
Frame Time: 0.008333
0.000000 85.388000 0.000000 0.000000 -5.767877 0.000000 0.000000 11.653817 0.000000 0.000000 -5.885947 0.000000 0.000000 -0.000000 0.000000 0.000000 -0.000000 0.000000 0.000000 12.528835 0.000000 0.000000 0.711642 0.000000 0.000000 -0.000000 0.000000 0.000000 0.000000 -90.000000 0.000000 -2.309062 0.000000 0.000000 2.309062 0.000000 0.000000 -0.000000 0.000000 0.000000 -0.000000 90.000000 0.000000 -2.309062 0.000000 0.000000 2.309062 0.000000 0.000000 8.520406 0.000000 0.000000 1.905762 0.000000 -0.000000 -4.658285 0.000000 0.000000 -0.000000 0.000000 0.000000 8.520406 0.000000 0.000000 1.905762 0.000000 -0.000000 -4.658285 0.000000 0.000000 -0.000000 0.000000
-65.456840 57.781693 11.659690 179.064975 -50.952464 -3.449325 3.454064 21.773774 3.016447 1.768724 12.494666 1.554669 2.322220 15.555077 2.024321 1.787633 12.470116 1.559640 0.505388 15.587881 4.862563 -0.820213 -6.737905 8.880759 1.555311 4.301669 0.285550 -3.716654 -13.917497 -8.495932 -49.114884 -47.075627 109.292809 15.855599 16.940248 10.659348 -8.940232 0.038217 -0.238504 -0.944747 -9.389541 12.465227 61.692165 -58.117380 -108.352925 -5.317836 4.548324 -16.089297 6.661526 -20.150739 -2.343599 -33.984028 74.499932 -38.730941 6.809612 -16.437685 13.515311 -0.013150 -0.028085 0.003181 -8.071763 -18.267640 4.898282 87.432515 80.740892 86.348743 0.714467 -21.417415 -18.747665 0.024745 0.023365 0.011368
-65.457360 57.780043 11.658480 179.068911 -50.944000 -3.444696 3.459459 21.757538 3.018500 1.790833 12.459197 1.559274 2.306979 15.565387 2.023876 1.790806 12.459204 1.559276 0.472912 15.641503 4.856043 -0.901330 -6.584256 8.842151 1.517199 4.310871 0.306146 -3.706349 -13.872969 -8.539568 -48.862282 -46.723407 109.191778 15.283625 16.384425 10.226179 -8.948831 0.083989 -0.226655 -0.870726 -9.424142 12.487861 61.593531 -57.851816 -108.300480 -5.100316 4.381330 -16.099983 6.664072 -20.160442 -2.353770 -33.993178 74.511928 -38.739241 6.802417 -16.447982 13.513939 -0.006602 -0.029897 0.004186 -8.061522 -18.278725 4.892154 87.435929 80.747516 86.363279 0.712006 -21.420254 -18.749571 0.029059 0.023333 0.014124
-65.457380 57.777808 11.657669 179.065882 -50.931120 -3.437547 3.466908 21.743276 3.020098 1.794414 12.450443 1.559567 2.308453 15.556402 2.024735 1.797056 12.448675 1.558326 0.424190 15.721865 4.827726 -0.962459 -6.454404 8.822306 1.486875 4.315211 0.322387 -3.709363 -13.828970 -8.588697 -48.543331 -46.265097 109.072114 14.595477 15.713700 9.728062 -8.957037 0.124333 -0.215380 -0.793596 -9.453482 12.494401 61.505069 -57.511564 -108.260393 -4.842531 4.193088 -16.120997 6.670546 -20.175991 -2.361403 -34.009685 74.517394 -38.754551 6.801480 -16.452519 13.512774 -0.010332 -0.032166 0.004689 -8.055288 -18.294435 4.887877 87.454916 80.749873 86.388305 0.712721 -21.422568 -18.750232 0.029294 0.023464 0.013296
-65.456652 57.775805 11.656852 179.061744 -50.919250 -3.434346 3.472062 21.732325 3.021842 1.800335 12.446396 1.560614 2.304045 15.553765 2.025576 1.801673 12.443104 1.557301 0.384217 15.800701 4.797457 -1.019734 -6.327391 8.801713 1.474525 4.317648 0.329185 -3.752970 -13.764669 -8.650148 -48.172946 -45.686876 108.987470 13.799694 14.933923 9.146873 -8.946592 0.223164 -0.197604 -0.706010 -9.549765 12.478786 61.417067 -57.089435 -108.255972 -4.521656 3.988959 -16.154314 6.680781 -20.189601 -2.364678 -34.031457 74.520848 -38.769732 6.799492 -16.457819 13.509439 -0.013161 -0.034724 0.004334 -8.052759 -18.307633 4.888349 87.471896 80.747568 86.412680 0.710983 -21.423589 -18.754367 0.031106 0.022455 0.011850
-65.456259 57.774461 11.655783 179.058169 -50.911472 -3.430207 3.475440 21.727110 3.020196 1.802382 12.443423 1.561874 2.312062 15.546230 2.024042 1.798357 12.443677 1.560089 0.349907 15.873099 4.773968 -1.080275 -6.185597 8.770521 1.454899 4.289031 0.346280 -3.792795 -13.682691 -8.689289 -47.700100 -45.001672 108.838306 12.887917 14.043130 8.480361 -8.953000 0.243841 -0.193205 -0.563701 -9.562932 12.457187 61.297243 -56.575247 -108.296671 -4.118725 3.770817 -16.185125 6.688740 -20.198439 -2.367413 -34.054757 74.523560 -38.792125 6.797443 -16.464824 13.509041 -0.019013 -0.034264 0.005138 -8.047636 -18.317441 4.886389 87.506271 80.739339 86.456065 0.704062 -21.425544 -18.758852 0.032370 0.020472 0.010654
-65.455738 57.773948 11.654506 179.054696 -50.908738 -3.427615 3.482834 21.727921 3.026227 1.800685 12.439417 1.559451 2.319400 15.540654 2.024355 1.800704 12.439274 1.559476 0.309507 15.953464 4.750096 -1.142877 -6.038287 8.731079 1.432022 4.261906 0.372591 -3.843349 -13.603616 -8.714270 -47.187860 -44.207535 108.675605 11.820423 13.041409 7.738923 -8.967227 0.310448 -0.190361 -0.379162 -9.608625 12.413325 61.112792 -55.957781 -108.362194 -3.631169 3.538476 -16.213425 6.691217 -20.201800 -2.365497 -34.048399 74.528651 -38.788772 6.787163 -16.470878 13.506534 -0.022822 -0.032424 0.007299 -8.042624 -18.319543 4.887518 87.512619 80.740557 86.468492 0.703392 -21.428338 -18.762142 0.038792 0.021691 0.013545
-65.455241 57.773282 11.653841 179.051675 -50.903812 -3.425734 3.486776 21.724339 3.029549 1.803108 12.436615 1.560182 2.322202 15.537072 2.025385 1.803030 12.436494 1.560211 0.269536 16.032143 4.716366 -1.211753 -5.886367 8.684639 1.410557 4.213775 0.418971 -3.907291 -13.502379 -8.753733 -46.675160 -43.334486 108.540753 10.563259 11.896849 6.927933 -8.972748 0.433678 -0.193622 -0.158081 -9.703593 12.345776 60.841350 -55.217816 -108.427310 -3.073901 3.281920 -16.261063 6.695017 -20.203891 -2.363137 -34.045899 74.525975 -38.787741 6.786259 -16.480844 13.504769 -0.029381 -0.024223 0.010456 -8.040587 -18.325136 4.886867 87.521922 80.740111 86.481726 0.707992 -21.429328 -18.765303 0.035130 0.023217 0.013838
-65.454198 57.772787 11.653615 179.050093 -50.899024 -3.428221 3.496080 21.719886 3.037158 1.807251 12.433765 1.562685 2.341939 15.518909 2.029012 1.793986 12.447801 1.566635 0.215722 16.104435 4.677494 -1.289421 -5.733333 8.632737 1.389656 4.212504 0.428749 -4.012284 -13.439288 -8.741529 -46.145097 -42.460985 108.425567 9.093857 10.537299 6.044730 -8.985896 0.533466 -0.193354 0.110368 -9.767495 12.252324 60.472356 -54.334832 -108.471582 -2.469566 2.995376 -16.363308 6.694545 -20.203776 -2.353290 -34.036047 74.522883 -38.783713 6.785306 -16.496361 13.504626 -0.039696 -0.015954 0.009117 -8.045389 -18.330036 4.886590 87.543077 80.736799 86.505187 0.711779 -21.431712 -18.768344 0.035783 0.023982 0.011463
-65.452132 57.772790 11.653550 179.044157 -50.897707 -3.432750 3.509601 21.708788 3.045739 1.810257 12.435085 1.566864 2.341277 15.517809 2.031022 1.804754 12.437943 1.566564 0.158073 16.176335 4.637642 -1.376979 -5.587408 8.575850 1.363230 4.208116 0.466883 -4.122559 -13.359627 -8.746486 -45.641684 -41.635230 108.355620 7.403937 8.934393 5.110725 -8.991160 0.633073 -0.192803 0.432991 -9.818335 12.139693 60.025654 -53.320948 -108.502986 -1.830137 2.674412 -16.554011 6.695199 -20.205645 -2.342615 -34.030154 74.522026 -38.778842 6.796154 -16.505329 13.501689 -0.025613 -0.017014 0.005020 -8.045696 -18.330578 4.895659 87.574583 80.735415 86.542062 0.715937 -21.434877 -18.773813 0.035798 0.023611 0.009914
-65.450496 57.772616 11.654023 179.038774 -50.895428 -3.433905 3.518655 21.693404 3.050730 1.820581 12.417647 1.567916 2.336073 15.537428 2.036997 1.817719 12.423246 1.567147 0.088473 16.241642 4.594637 -1.473304 -5.455986 8.514725 1.331586 4.219889 0.544658 -4.243164 -13.288060 -8.778460 -45.220931 -40.849651 108.381066 5.531148 7.096145 4.126495 -8.991155 0.745391 -0.191341 0.817148 -9.879137 12.007519 59.538455 -52.220672 -108.568318 -1.157186 2.299916 -16.819355 6.697629 -20.208894 -2.332765 -34.033999 74.519956 -38.784236 6.796643 -16.512577 13.500534 -0.020560 -0.015835 0.003748 -8.045451 -18.332059 4.903029 87.579146 80.735639 86.546727 0.716098 -21.438050 -18.772593 0.039473 0.026090 0.008566
